<?xml version="1.0" encoding="utf-8"?>
<!-- Generator: Adobe Illustrator 26.0.2, SVG Export Plug-In . SVG Version: 6.00 Build 0)  -->
<svg version="1.1" id="Layer_1" xmlns="http://www.w3.org/2000/svg" xmlns:xlink="http://www.w3.org/1999/xlink" x="0px" y="0px"
	 viewBox="0 0 399.8 267.9" style="enable-background:new 0 0 399.8 267.9;" xml:space="preserve">
<style type="text/css">
	.st0{fill:#201014;}
	.st1{fill:#09212D;}
	.st2{fill:#FFFFFF;}
</style>
<g id="Layer_3">
</g>
<path class="st0" d="M186.4,0.1L219,62.9h-66.8C152.3,62.9,188.3-2.1,186.4,0.1z"/>
<path class="st0" d="M186.8,25.1l50.1,82.5H134.4C134.4,107.6,189.6,22.2,186.8,25.1z"/>
<path class="st0" d="M187.3,34.1l71.3,144.6H112.7C112.7,178.7,191.3,29,187.3,34.1z"/>
<path class="st0" d="M351.5,91.1l22.6,46H328C327.9,137.1,352.8,89.5,351.5,91.1z"/>
<path class="st0" d="M351.9,123.3l40.9,95.9h-83.6C309.2,219.2,354.3,120,351.9,123.3z"/>
<path class="st0" d="M352.1,140.7l47.7,127.2h-97.6C302.2,267.9,354.8,136.2,352.1,140.7z"/>
<path class="st0" d="M351.7,104.7l32.5,73h-66.5C317.7,177.7,353.6,102.2,351.7,104.7z"/>
<path class="st0" d="M272.8,27.8l32.6,59.1h-66.8C238.7,86.9,274.7,25.8,272.8,27.8z"/>
<path class="st0" d="M273.2,49.2l52,102.5H218.9C218.9,151.7,276.2,45.6,273.2,49.2z"/>
<path class="st0" d="M273.6,88.7l69,136H201.5C201.5,224.7,277.6,84,273.6,88.7z"/>
<path class="st0" d="M106.6,79l24.1,49.2H81.4C81.4,128.2,108,77.3,106.6,79z"/>
<path class="st0" d="M107,113.4l43.7,102.4H61.4C61.4,215.9,109.5,109.9,107,113.4z"/>
<path class="st0" d="M107.2,132l51,136H53.9C53.9,267.9,110.1,127.2,107.2,132z"/>
<path class="st0" d="M106.8,93.6l34.7,78h-71C70.5,171.5,108.8,90.8,106.8,93.6z"/>
<path class="st1" d="M43.7,118.9L59.9,149h-33C26.9,149,44.7,117.8,43.7,118.9z"/>
<path class="st0" d="M44.2,146.1l36.3,80.8H6.2C6.2,226.9,46.3,143.3,44.2,146.1z"/>
<path class="st0" d="M44.3,160.7l42.4,107.2H0C0,267.9,46.8,157,44.3,160.7z"/>
<path class="st0" d="M43.9,124.3l24.6,59.8H18.2C18.2,184.1,45.3,122.3,43.9,124.3z"/>
<rect x="109.8" y="160.4" class="st0" width="184.2" height="107.5"/>
<rect x="260.8" y="202.1" class="st0" width="91.4" height="65.8"/>
<rect x="92" y="180.4" class="st0" width="144.6" height="72.5"/>
<rect x="139.5" y="203.2" class="st2" width="21.3" height="23.1"/>
<rect x="148.3" y="200.9" class="st0" width="3.7" height="27.2"/>
<rect x="137.8" y="212.9" class="st0" width="24.9" height="3.7"/>
<rect x="193.9" y="203.2" class="st2" width="21.3" height="23.1"/>
<rect x="202.7" y="200.9" class="st0" width="3.7" height="27.2"/>
<rect x="192.2" y="212.9" class="st0" width="24.9" height="3.7"/>
<rect x="236.7" y="180.4" class="st2" width="94.3" height="72.5"/>
<path class="st2" d="M236.7,180.4l0.3,0.3l52.6-46l41.1,45.9l0.3-0.3v-0.4c0,0-41.9-0.4-69.9-0.4c-7,0-13.1,0-17.5,0.1
	c-2.2,0-3.9,0.1-5.1,0.1c-0.6,0-1.1,0.1-1.4,0.1c-0.2,0-0.3,0-0.4,0.1l-0.2,0.1l-0.1,0.1c-0.1,0-0.1,0.2-0.1,0.3v0.9l0.7-0.6
	L236.7,180.4h0.4H236.7l0.3,0.3c0,0,0.1-0.1,0.1-0.3H236.7l0.3,0.3l-0.2-0.2l0.1,0.3c0,0,0,0,0.1-0.1l-0.2-0.2l0.1,0.3
	c0,0,0.1,0,0.2,0c0.4-0.1,1.4-0.1,2.8-0.1c4.1-0.1,11.9-0.2,21.3-0.2c14,0,31.4,0.1,45.4,0.2c7,0.1,13.1,0.1,17.5,0.1
	c2.2,0,3.9,0,5.1,0s1.9,0,1.9,0h0.9l-42.3-47.2l-53.2,46.5L236.7,180.4h0.4H236.7z"/>
<path class="st2" d="M331.4,183.1h27.2L301,104.7H131.9L92,180.4C92,180.4,332.7,181.8,331.4,183.1z"/>
<rect x="273.3" y="201.7" class="st0" width="25.4" height="52.6"/>
<polygon class="st0" points="333,184.8 351.2,184.8 298.3,115.1 237.1,181.6 289.7,134.2 "/>
<polygon class="st0" points="172.3,95.6 172.3,168.2 185.4,168.2 200.8,148.7 200.4,94.3 "/>
<polygon class="st0" points="298.3,115 218.9,119.1 293,122.7 "/>
<polygon class="st0" points="286.7,128.3 217.4,132.4 279.7,135.7 "/>
<polygon class="st0" points="274.6,141.1 216.5,144.4 269.5,147 "/>
<polygon class="st0" points="261.6,154.7 216.2,156.7 257,159.9 "/>
<polygon class="st0" points="249.8,167.4 213.8,169.6 246.5,171.7 "/>
<polygon class="st0" points="74.8,171.7 154.1,167.6 81.7,164.4 "/>
<polygon class="st0" points="86.4,158.4 155.6,154.3 93.4,151 "/>
<polygon class="st0" points="98.5,145.5 156.5,142.2 103.5,139.6 "/>
<polygon class="st0" points="111.5,131.9 156.8,130 116,126.8 "/>
<polygon class="st0" points="123.3,119.2 159.3,117 126.6,115 "/>
<polygon class="st0" points="383.4,244 304.1,239.9 376.5,236.7 "/>
<polygon class="st0" points="373.1,224.9 303.8,220.8 366,217.5 "/>
<polygon class="st0" points="363.7,206.3 305.6,203 358.6,200.4 "/>
<polygon class="st0" points="333.1,172.5 287.8,170.5 328.6,167.3 "/>
<polygon class="st0" points="323.4,161.6 287.5,159.4 320.2,157.4 "/>
<polygon class="st0" points="351.5,185.3 285,182 346.4,179.4 "/>
<polygon class="st2" points="171,104.7 171,116 204.2,116.4 204.2,104.7 "/>
</svg>
