<?xml version="1.0" encoding="utf-8"?>
<!-- Generator: Adobe Illustrator 26.0.2, SVG Export Plug-In . SVG Version: 6.00 Build 0)  -->
<svg version="1.1" id="Layer_1" xmlns="http://www.w3.org/2000/svg" xmlns:xlink="http://www.w3.org/1999/xlink" x="0px" y="0px"
	 viewBox="0 0 1590 1590" style="enable-background:new 0 0 1590 1590;" xml:space="preserve">
<style type="text/css">
	.st0{fill:#B92025;}
	.st1{fill:#E27154;}
	.st2{fill:#69483B;}
	.st3{fill:#221216;}
	.st4{fill:#6B1015;}
	.st5{fill:#D18162;}
	.st6{fill:#A03A2E;}
	.st7{fill:#B7684F;}
	.st8{fill:#2E2326;}
	.st9{fill:#FFFFFF;}
</style>
<path class="st0" d="M867.1,1182.6c0,0-34.4,9.8-46.7,34.2c-9.2,10.7-15.2,49.6-15.2,49.6s-4.7,20.5-16.7,14.6
	c-5.8-2.9-5.8-23.3-5.8-23.3s-5.6,8.9-7.5,27.2c-1.7,16.5-0.9,37.5,1.7,55.3c3.9,26.7,15.6,40,20.6,46.8c5,6.8,30.6,33.4,35.2,43.4
	c6.7,14.6,18.4,42.5,1.7,64.8c-10.3,13.7-24.6,22.3-24.6,22.3s21.9-2,35.4-8.6c15.8-7.8,42.6-29.3,39.2-66
	c-3.3-35.9-19.2-46.6-31.7-80.5c-11.7-31.7-14.1-64.1-10-90.2C847.6,1240.2,867.1,1182.6,867.1,1182.6z"/>
<path class="st0" d="M879.8,1220c0,0-19.1,25.6-22.5,57.6c-1.7,15.5-3.4,41.4,3.3,68.3c8.3,33.2,26.2,67.3,51.1,86.9
	c-0.8-24.4-2.5-41,7.5-39c10,2,7.5,31.2,7.5,31.2s-1.7,31.2-27.5,56.6c-25.8,25.4-48.3,33.2-50.8,35.1c56.6-4.9,61-27.8,70-21.5
	c8.3,5.9-6.7,15.6-6.7,15.6s-23.3,10.7-31.7,10.7c23.3,2,45-2,64.1-23.4c19.2-21.5,15.8-52.7,15.8-52.7s-5,15.6-12.5,16.6
	c-7.5,1-11.7-6.8-6.7-18.5c5-11.7,17.3-28.9,12.5-47.8c-6.7-26.3-26.5-33.4-47.8-57.6C873.2,1301.2,869.4,1256.4,879.8,1220z"/>
<path class="st0" d="M893.5,1257.2c0,0-6.4,9.3-5.7,16.5c0.7,7.2,3.6,13.6,10,22.2c6.4,8.6,8.7,20.7,6.5,28.6
	c8.5-9.3,18.3-22.1,13.4-33.6s-12.6-14.5-13.4-25.2c-0.7-10.7,2-26.3,2-26.3L893.5,1257.2z"/>
<path class="st0" d="M761.8,1286.4c0,0-3.3,29-3.3,45.8c0,17.9,3.3,31.3,7.8,41.3c16.8,37.9,33.5,33.5,52.1,64.9
	c12.6,21.2,8.2,37.8,1.7,48.3c-8.5,13.9-18.3,22-18.3,22s8.7-60.9-15.7-79.8c0,31.5,0,39.9-12.2,50.4s-36.7,4.2-36.7,4.2
	s14.8,29.4,31.4,34.6c-25.3,2.1-55-2.1-70.7-47.2C682.1,1425.8,707.6,1343.1,761.8,1286.4z"/>
<path class="st1" d="M727,1242.5"/>
<path class="st2" d="M739.2,1566c0,0,7.3-32.8,35-36c27.7-3.3,55.4,4.9,65.7,24.6c10.2,19.7,1.5,36,1.5,36h-87.5L739.2,1566z"/>
<path class="st3" d="M777.4,1576.9c0,0,3.1,0.8,8.8-2.3c5.1-2.8,19.4,8.4,22.6,13.8c3.1,5.4-32.6-0.8-38.8-2.3
	c-6.3-1.5-3.1-10.7-1.9-17.6c1.3-6.9,11.9-6.1,20-8.4c8.1-2.3,13.2,1.5,19.4,5.4c6.3,3.8,16.9,14.6,16.9,14.6s0-18.8-23.8-29.1
	c-38.8-16.8-48.2,26-48.2,26s0-10.5,2.8-18c2.8-7.5,15.5-18.4,22.8-18.4c7.3,0,23.6-1.5,33.8,7.5c10.2,9,17.5,24.9,18.3,31.8
	c0.8,7,0,11.4-2,9.5s-16.7-12.4-19.5-14.9c-2.8-2.5-10.2-11.4-14.7-10c-4.5,1.5-13.4,1-17.9,3s-5.7,10-5.7,11.4s-0.8,3.5,5.7,4.5
	c6.5,1,28.1,7,24.4,3c-3.7-4-7.3-7-10.6-7.5C786.5,1578.4,777.4,1576.9,777.4,1576.9z"/>
<path class="st2" d="M896.8,1566c0,0,11.3-18.6,37.9-27.8c19-6.6,40.9-4.9,51.1,14.7c10.2,19.7,13.1,37.7,13.1,37.7h-87.5
	L896.8,1566z"/>
<path class="st2" d="M362.8,1561.9c0,0-6.6,9.8-3.3,18c3.3,8.2,13.1,12.3,13.1,12.3l51.6-1.6l4.1-19.7L362.8,1561.9z"/>
<path class="st4" d="M439.4,1550c0,0,59-45.9,64.7-50c5.7-4.1,14.7-13.1,33.6-16.4c18.8-3.3,33.6,0,38.5,5.7
	c4.9,5.7,4.1,27-0.8,38.5c-4.9,11.5-20.5,25.4-31.9,31.9c-11.5,6.6-72.1,19.7-72.1,19.7l-12.3,2.5L439.4,1550z"/>
<path class="st2" d="M426.7,1590.1c0,0,10.6,1.6,33.6,3.3c22.9,1.6,36.9,2.5,40.9-3.3c4.1-5.7,5.7-25.4-8.2-27
	c-13.9-1.6-47.5-1.6-47.5-1.6L426.7,1590.1z"/>
<path class="st2" d="M403.8,1297.4c0,0-13.9-12.3-14.7-29.5c-0.8-17.2,3.6-35,18-41.8c13.9-6.6,43.4-8.2,53.2,2.5
	c17.7,19.2,13.1,57.3,9,64.7C465.2,1300.6,403.8,1297.4,403.8,1297.4z"/>
<path class="st4" d="M385.9,1482c0,0-5.6,16.4,66.9,16.4c44.9,0,50.4-11.2,50.4-11.2l8.2,9.5l-58.7,64.8H429l-55.9-49.2
	C373.1,1512.2,383.2,1487.2,385.9,1482z"/>
<path class="st4" d="M451.7,1561.5c0,0-36.9-36.9-59.8-51.6c-22.9-14.7-45-27.8-50.8-27c-5.7,0.8-23.7-1.6-30.3,2.5
	c-6.6,4.1-4.1,36.9-2.5,45.9c1.6,9,12.3,18.8,29.5,27s82.7,32.8,87.6,33.6C425.5,1591.8,437.8,1584.4,451.7,1561.5z"/>
<path class="st5" d="M520.5,1451.7c0,0,17.2,34.4,25.4,36c8.2,1.6,22.1,6.6,30.3,1.6c8.2-4.9,40.1-44.2,44.2-45
	c4.1-0.8,11.3,6.3,20.5,9c16.4,4.9,41.7-3.7,31.1-9c-18-9-34.4-13.9-29.5-13.9s21.3-0.8,15.6-4.9c-5.7-4.1-18-5.7-24.6-4.9
	c-6.6,0.8-16.4,0.8-25.4,7.4c-9,6.6-30.3,18.8-36.9,22.9c-6.6,4.1-22.9-29.5-22.9-29.5L520.5,1451.7z"/>
<g>
	<path class="st2" d="M257.8,1559.7c0,0-5.2,9.7-6.4,18c-1.2,8.3,0,13.1,0,13.1h61.5c0,0-0.6-6.8-4.6-9.7
		c-5.8-4.1-15.8-5.2-21.5-8.3c-11.6-6.2-15.1-23.5-15.1-23.5L257.8,1559.7z"/>
	<path class="st2" d="M213.5,1559.7c0,0-5.2,9.7-6.4,18c-1.2,8.3,0,13.1,0,13.1h61.5c0,0-0.6-6.8-4.6-9.7
		c-5.8-4.1-15.8-5.2-21.5-8.3c-11.6-6.2-15.1-23.5-15.1-23.5L213.5,1559.7z"/>
</g>
<path class="st2" d="M101.1,1220.1c0,0-4.3-12.8-26.5-8.8c-22.2,4.1-36.5,64.1-38.5,71.8c-4.7,17.5-22.2,91.1-12.3,130.8
	c21-24.5,68.9-87.6,68.9-87.6s-19.3-59.5-1.2-71.8C109.4,1242.5,101.1,1220.1,101.1,1220.1z"/>
<path class="st6" d="M92.6,1321.7c0,0-28.3-0.8-40.5,13.8s-18.3,34.8-22.9,51s-15.6,146.5,13.4,184.5c2.3-35.6,12.1-69,21.3-81.9
	s32.5-62.1,63.8-91.3c17.5-16.3,35.1-17.3,35.1-17.3s7-20.1,13-24c0,0-10.7-15-20.6-21.5C145.3,1328.6,134.6,1325.8,92.6,1321.7z"/>
<path class="st3" d="M148.6,1383.6c0,0-3.9-19.5-4.7-23.3c12.5,16.3,12.5,16.3,12.5,16.3L148.6,1383.6z"/>
<path class="st5" d="M140.1,1232.6c0,0,18.7,10.1,14.8,35c-2.3,14.6-5.4,27.2-9.3,32.7c-3.9,5.4-4.7,7.8-14,6.2
	c-9.3-1.6-27.2-8.6-31.9-16.3c-4.7-7.8-4.7-25.5-3.1-35.8C98,1244.3,105.8,1223.3,140.1,1232.6z"/>
<path class="st5" d="M174.7,1353.8l23.3,19.5l-14,9.3l-27.2-5.4C156.8,1377.2,169.2,1356.9,174.7,1353.8z"/>
<path class="st2" d="M154.8,1267.6c0,0,5.4,0,5.4-11.7c0-11.7-9.8-24.9-14-28c-8.6-6.2-20.2-14-45.1-7.8
	c-14,8.6-14.8,16.3-14.8,16.3s-3.9,10.5-3.1,22.6c0.8,11.7,3.1,21,16.3,31.1c0-24.9,0-24.9,0-24.9s12.5,2.3,24.1-3.9
	c11.7-6.2,17.9-22.6,17.9-22.6S155.6,1242.7,154.8,1267.6z"/>
<path class="st4" d="M41.5,1567.3c0,0,3.4,10.7,23.8,18.9s56,4.1,56,4.1s40.3-5.3,47.3-63c11.7,14.6,35,38.5,38.5,39.1
	c3.5,0.6,17.5-3.5,22.2-12.8c9.9,8.8,21.6,11.7,21.6,11.7s25.3-6.6,25.7-10.5c0.6-6.4-12.8-29.2-19.3-46.7
	c-6.4-17.5-23.9-80.6-25.7-97.5c-1.8-16.9-4.7-27.4-12.8-32.7c-8.2-5.3-15.2-7-27.4-3.5c-18.7-1.2-32.7-1.8-52.5,12.3
	S34.6,1492.9,41.5,1567.3z"/>
<path class="st2" d="M1437.1,1222.3c0,0-8.5,14.4-11.3,31.5c-2.8,17.1-7.8,44.5-7.8,44.5s4.9,4.8,17,6.9c12,2.1,28.3,2.1,28.3,2.1
	L1437.1,1222.3z"/>
<path class="st6" d="M1426,1362.9l-16.6-17.8c0,0-2.5-1.2-1.8-5.5c10.4-8.6,24.6-21.5,32.6-23.3c8-1.8,15.4-0.6,15.4-0.6l38.1-6.8
	c0,0,23.3,0.6,33.2,6.8c9.8,6.1,21.5,18.4,29.5,58.3c8,39.9,19,147.4,5.5,181.2C1503.4,1480.2,1426,1362.9,1426,1362.9z"/>
<polygon class="st3" points="1426,1362.9 1436.4,1350.6 1438.9,1367.2 "/>
<path class="st5" d="M1408.2,1342.6c0,0-14.1,11.7-17.2,16.5c-3.1,4.8,4.3,6.2,4.3,6.2l29.5-2.8L1408.2,1342.6z"/>
<g>
	<path class="st2" d="M1326.2,1561.8c0,0,5.8,9,7.1,16.7c1.3,7.7,0,12.2,0,12.2h-68.2c0,0,0.7-6.3,5.1-9c6.4-3.9,17.5-4.9,23.8-7.7
		c12.9-5.8,16.7-21.9,16.7-21.9L1326.2,1561.8z"/>
	<path class="st2" d="M1375.3,1561.8c0,0,5.8,9,7.1,16.7c1.3,7.7,0,12.2,0,12.2h-68.2c0,0,0.7-6.3,5.1-9c6.4-3.9,17.5-4.9,23.8-7.7
		c12.9-5.8,16.7-21.9,16.7-21.9L1375.3,1561.8z"/>
</g>
<path class="st4" d="M1449.9,1587.1c0,0-13.5,2.2-24.6-27.6c-10.4-28.3-12.3-32.6-12.3-32.6s-26.4,33.2-33.2,36.2
	c-5.5,0-25.2-12.3-25.2-12.3l4.9-17.8c0,0-8,14.7-14.7,21.5c-6.8,6.8-12.9,12.3-12.9,12.3l-21.3-14.7c0,0-7.6-5.6-5.2-8.7
	s24.6-44.8,26.4-52.8c1.8-8,19-77.4,20.3-84.8s3.1-22.7,4.3-27.6c1.2-4.9,6.1-14.7,17.8-17.2c11.7-2.5,22.1,4.3,22.1,4.3l9.2-3.7
	c0,0,16-6.8,33.2,5.5c17.2,12.3,62,47.9,107.5,121.6c16,30.7,15.4,66.3,15.4,66.3s-12.3,30.7-31.9,33.8
	C1510.1,1592,1457.3,1589.6,1449.9,1587.1z"/>
<path class="st5" d="M1089.1,885.1c0,0-1.8,15-0.9,23.9c0.9,8.8,3.5,36.2,8.8,38c5.3,1.8,10.6,3.5,10.6,3.5l-0.9,11.5
	c0,0,1.8,14.1,17.7,12.4c15.9-1.8,32.7-9.7,32.7-9.7s-8.8-23.9-8-27.4s5.3-16.8,5.3-23s-0.9-35.4-12.4-37.1
	C1130.6,875.4,1099.7,868.3,1089.1,885.1z"/>
<path class="st2" d="M1113,851.5c-9.5,2.7-33.6,23-31.8,26.5s8.8,9.7,15.9,9.7c7.1,0,22.1-2.7,26.5,2.7c4.4,5.3,5.3,19.4,8.8,18.6
	c3.5-0.9,5.3-8.8,8.8-5.3c3.5,3.5,5.3,10.6,4.4,15c-0.9,4.4,3.5,18.6,3.5,18.6s13.4-13.6,15.9-18.6c4.4-8.8,8.8-29.2,3.5-45.1
	C1166,865.7,1146.6,841.8,1113,851.5z"/>
<path class="st7" d="M1107.7,950c0,0,18.6-0.7,28.3-5.7c-15.9,11.4-29.2,15-29.2,15L1107.7,950z"/>
<path class="st4" d="M1060.5,1184.4l31.1,368.5l31.1,3.3c0,0,39.3-131,31.1-194.9c32.8,113,55.7,193.3,55.7,193.3s26.2,1.6,31.1-1.6
	c6.6-68.8,3.3-149-18-194.9c-9.8-114.7-24.6-168.7-24.6-168.7S1117,1210.6,1060.5,1184.4z"/>
<path class="st8" d="M1091.6,1552.9c0,0,1.9,5.1-2.5,10.6c-6.6,8.2-12.3,9.8-24.6,11.5c-8.2,1.1-27,8-27,16.2c22.1,0,85.2,0,85.2,0
	v-35L1091.6,1552.9z"/>
<path class="st2" d="M1212,1552.9c0,0,1.8,5.1-2.3,10.6c-6,8.2-11.3,9.8-22.7,11.5c-7.5,1.1-24.9,8-24.9,16.2c20.4,0,78.6,0,78.6,0
	v-39.9L1212,1552.9z"/>
<path class="st6" d="M1153.9,955.7c0,0,35.2,1.7,54.1,28.6c18.8,27,40.1,77.5,42.6,119.6c0.8,17.7-1.6,18.5-13.9,27
	c-12.3,8.4-36,17.7-36,17.7s4.9,46.3,1.6,49.7s6.6,2.5-13.9,7.6s-93.4,17.7-127.8-5.9c-9-18.5-4.9-64-4.9-64s-21.3,0-26.2-11.8
	c-4.9-11.8-9-17.7-4.1-43c4.9-25.3,27-68.2,30.3-75.8s9.8-27.8,19.7-33.7c9.8-5.9,30.3-12.6,30.3-12.6s6.3,5.2,18,5.9
	C1137.5,965.8,1143.2,963.3,1153.9,955.7z"/>
<path class="st9" d="M1197.3,1080.2c0,0,11.5,9.8,9.8,13.1c-1.6,3.3-9.8,5.7-9.8,5.7V1080.2z"/>
<path class="st6" d="M1197.3,1099v-18.8c0,0-12.3-26.2-18-28.7c-5.7-2.5-8.2,9-10.6,17.2c-2.5,8.2-4.9,27-13.1,27.8
	c-8.2,0.8-33.6-1.6-42.6-10.6c-9-9-40.1-25.4-40.1-25.4s30.3,45,39.3,49.1c9,4.1,50,11.5,55.7,19.7c5.7,8.2,10.6,22.1,10.6,33.6
	s-1.6,37.7-1.6,37.7l21.3-2.5c0,0,6.6-22.1,3.3-44.2C1198.1,1131.8,1197.3,1099,1197.3,1099z"/>
<path class="st2" d="M1070.3,1070.3l-61.4-41.8c0,0-9-4.1-18.8,2.5c-9.8,6.6-6.6,22.9-6.6,22.9l15.6,10.6c0,0-14.7,1.6-20.5,1.6
	s0,6.6,0,6.6l33.6-0.8l29.5,25.4l106.5,68c0,0,8.2-50,12.3-49.1s-43.4-15.6-43.4-15.6l-35.2-41.8l1.6-30.3l-6.6-0.8v24.6l-22.9-27
	c0,0-5.7-2.5-9,3.3c-3.3,5.7,0,9.8,0,9.8L1070.3,1070.3z"/>
<path class="st5" d="M1041.7,1097.4c3.1-5.6,30.3-16.4,31.9-12.3c1.6,4.1-6.6,6.6-5.7,9.8c0.8,3.3,18.8,5.7,19.7,9
	s-1.5,7.7-10.6,10.6c-18,5.7-32.8-3.3-32.8-3.3S1037.6,1104.7,1041.7,1097.4z"/>
<path class="st5" d="M1117.8,1133.4c0,0-12.3,4.1-19.7-1.6c-7.4-5.7-16.4-8.2-16.4-8.2s4.9,14.7,7.4,20.5c2.5,5.7,6.6,9,13.9,8.2
	s26.2-3.3,26.2-3.3L1117.8,1133.4z"/>
<path class="st2" d="M1148.1,1165.3c0,0,4.9,8.2,19.7,4.9c12.9-2.9,23.7-29.5,12.3-38.5c-11.5-9-13.1-18.8-19.7-15.6
	S1131.8,1144,1148.1,1165.3z"/>
<path class="st6" d="M1129.3,1149l-11.5-15.6c0,0,36.9-13.9,42.6-17.2c5.7-3.3,46.7-22.9,46.7-22.9s12.3-4.9,14.7,2.5
	c2.5,7.4-6.6,42.6-6.6,42.6s-12.3,9-30.3,10.6C1167,1150.6,1129.3,1149,1129.3,1149z"/>
<path class="st2" d="M1091.6,1552.9c0,0,1.9,5.1-2.5,10.6c-6.6,8.2-12.3,9.8-24.6,11.5c-8.2,1.1-27,8-27,16.2c22.1,0,85.2,0,85.2,0
	v-35L1091.6,1552.9z"/>
<path class="st5" d="M1410.6,1424.3c-4.3,0.4-6.1-1.2-8.6-6.8c-2.5-5.5-5.5-16.6-7.4-11.1s2.5,11.1-0.6,9.8
	c-3.1-1.2-4.3-9.8-7.4-9.8c-3.1,0-4.9,1.8-5.5,6.1c-0.6,4.3-2.5,11.1,1.8,16.6c4.3,5.5,14.7,10.4,19.7,10.4c4.9,0,12.9,0.6,19.7,1.2
	c6.8,0.6,50,0.9,57.7-1.8c8.6-3.1,24.6-22.1,34.4-36.2c7.4-10.6,11.1-21.5,11.1-21.5s-23.3-3.1-31.3-10.4
	c-6.8,11.7-19.2,33.2-23.3,38.7C1465.3,1417,1453,1420,1410.6,1424.3z"/>
<path class="st5" d="M1352,1402.2c0,0-7.6,4.6-8.3,10.4s4.9,13.7,4.9,13.7L1352,1402.2z"/>
<path class="st5" d="M1454.2,1319.9c0,0,2.5,5.2,8,5.5c10.4,0.6,17.2-3.7,22.7-7.4c5.5-3.7,8.6-9.2,8.6-9.2s-3.7-17.8-4.3-24.6
	c-0.6-6.8,11.1-35.6,4.3-49.1c-6.8-13.5-15.4-22.1-27.6-23.3c-12.3-1.2-26.4,9.2-28.9,14.7s-5.5,21.5-2.5,38.1
	c3.1,16.6,8.6,27,12.9,28.3s9.8-1.2,9.8-1.2s1.2,14.7,0.6,17.8C1457.3,1312.5,1454.2,1319.9,1454.2,1319.9z"/>
<path class="st2" d="M1434.6,1222.3c0,0,6.1,19.7,22.7,25.2c16.6,5.5,22.7,3.7,25.2,11.7c2.5,8,2.5,32.6,0,38.7
	c-2.5,6.1,32.6-2.5,38.7-6.8c6.1-4.3-2.5-35-2.5-35s-9.2-49.8-35.6-52.8S1445,1207.5,1434.6,1222.3z"/>
<path class="st5" d="M102.7,1284c0,0-6.2,31.1-11.7,38.1c16.3,9.3,25.7,17.1,36.6,16.3s2.3-7,1.6-22.6c-0.8-15.6,2.3-25.7,2.3-25.7
	L102.7,1284z"/>
<path class="st5" d="M62.2,1389c0,0,26.5,52.1,45.1,58.4c18.7,6.2,79.4-0.8,86.4-1.6c7-0.8,11.7-10.1,10.1-18.7s-1.8-16.1-7.2-11.5
	c-5.4,4.7-7.6,11.1-7.6,11.1s0-4.5-2.9-8.2c-3.1-3.9-4.1,10.1-4.1,10.1s-0.5,3.7-9.3,3.1c-14-1-47.5-6.2-52.9-10.1
	c-5.4-3.9-24.9-45.1-24.9-45.1S84,1389,62.2,1389z"/>
<path class="st5" d="M232.7,1417.1c0,0-6.2,9.3-8.6,13.2c-2.3,3.9-3.1,8.6,0,12.5c3.1,3.9,4.7,1.6,9.3-2.3c4.7-3.9,7-3.9,6.2-10.9
	C238.9,1422.5,232.7,1417.1,232.7,1417.1z"/>
<path class="st5" d="M404.7,1339.5c0,0,15.9-4.1,15-13.9s-0.9-9.8-0.9-9.8l10.6-4.1h30.4c0,0-0.9,13.9,1.8,18s6.6,8.2,13.6,10.6
	s17.6,20.5,5.3,25.4c-12.3,4.9-35.2,16.4-53.7,10.6c-18.5-5.7-26.4-14.7-27.3-19.7C398.5,1351.8,404.7,1339.5,404.7,1339.5z"/>
<path class="st5" d="M367.3,1445.6l-9,11.7c0,0,33.6,22.6,48.3,37.6c9.8,10,23.7,20.9,23.7,36c0,8.4-11.5,17.6-26.2,5
	c-8.9-7.6-12.3-26.8-12.3-26.8s-34.4-13.4-45-16.7c-18.8-5.9-27.8-10-30.3-18.4c-2.5-8.4,12.1-50.2,12.1-50.2L367.3,1445.6z"/>
<path class="st7" d="M417.1,1310c0,0,6.3,10.4,12.5,15.6c4.9,4.1,10.6,4.1,18.8,0c8.2-4.1,10.6-13.1,10.6-13.1
	S430.8,1325.6,417.1,1310z"/>
<path class="st5" d="M401.3,1263.8c0,0-5.7,15.6,2.5,33.6c4.2,9.3,18,24.6,30.3,26.2c12.3,1.6,16.1-0.8,24.4-10.6
	c8.3-9.8,12.4-20.5,10-35.2s-7.3-29.8-18.4-33.2C433.7,1239.6,403.8,1244.9,401.3,1263.8z"/>
<path class="st2" d="M753.8,1590.6c0,0-5.8-40.9-38.8-37.7c-41.3,4.1-37,37.7-37,37.7H753.8z"/>
<path class="st2" d="M829.7,1589.8c0,0,10.2-45.9,36.5-45.9c27.7,0,36.5,11.5,48.1,45.9C850.1,1591.5,829.7,1589.8,829.7,1589.8z"/>
<g>
	<path class="st3" d="M718,1577.9c-8-3.6-10.8,3.8-10.8,3.8c-1.6,4.8,2.1,8.4,2.1,8.4s1.6-4.5,3.2-5.1c1.6-0.6,4.8-0.6,4.8,3.1
		c0,0.8,0.3,1.6,0.6,2.4h6.4C724.4,1590,725.8,1581.4,718,1577.9z"/>
	<path class="st3" d="M690.3,1590.6c3.1-5.8,10.5-18.7,17.9-21.5c9.6-3.6,18.7,2.4,20.9,7.8c1.8,4.5,3.9,11.5,4.6,13.7h7.4
		c-0.7-2.1-1.7-4.6-2.9-7.5c-3.2-8.2-10.2-17.6-20.3-21.4c-10.2-3.8-22.5,10.5-25.1,14.5c-3.5,5.3-4.1,11-4.1,14.4H690.3z"/>
</g>
<g>
	<path class="st3" d="M878.9,1578.2c-2.6-4.8-15.9,5-9.9,5c5.1,0,5.8,4.1,5.8,4.1s-10.2,2.1-13.4,0.4c-3.2-1.8,1.1-7.7,6.9-12.5
		c5.8-4.8,12.2-0.6,14.8,1.2c1.9,1.2,5.2,8,8.2,14.2h6.3c-3-4.5-8.9-14.4-10.8-16.6c-2.1-2.4-15.3-5.3-18-4.8
		c-1.1,0.2-3.2,1.5-5.4,3.4c-3.3,2.8-6.8,7.1-7.8,12.1c-0.5,2.7-0.2,4.6,0.4,5.9h30.4C885.1,1586.8,880.6,1581.1,878.9,1578.2z"/>
	<path class="st3" d="M848.5,1590.6c-0.1-0.2-0.2-0.4-0.2-0.5c-1.1-4.8,7.9-26.1,15.3-28.5c7.4-2.4,27,8.3,32.3,15.4
		c2.4,3.2,3.8,8.6,4.8,13.6h6c-3-9.9-8.1-22.5-10.8-25.5c-4.2-4.8-15.3-9.5-21.2-10.7c-5.8-1.2-25.9,2.4-31.7,16.6
		c-2.5,6-1.5,13.2,0.8,19.5H848.5z"/>
</g>
<g>
	<path class="st3" d="M951,1569c6,0.7,13.1,6.5,11.9,12.4c-0.6,3-3.6,6.4-7.2,9.2h7.4c0.4-0.1,0.7-0.2,1.1-0.3
		c8.4-0.7,4.8-18.5-3.6-24.5c-8.4-5.9-28.2,5.2-31.3,6.7c-3,1.5-9,3.7-10.2,0c-1.2-3.7,4.8-8.9,12-12.6c7.2-3.7,21.6-7.4,34.3-3.7
		c10.4,3.1,13.1,26.4,13.7,34.4h0.7c1.4-7.7,4.5-29.9-5.3-39c-12-11.1-43.3-4.2-49.3,1c-6,5.2-18.5,16.5-12.7,29.1
		C917.1,1591.9,945,1568.3,951,1569z"/>
	<path class="st3" d="M934.7,1588.8c4.8-4.4,6.9-5.2,12-7.2c0,0,1.3-0.2,9.1-4.7c7.8-4.4-20.4,2.2-26.4,8.2
		c-1.8,1.8-2.3,3.6-2.1,5.5h6.3C933.7,1590,934,1589.4,934.7,1588.8z"/>
</g>
<path class="st6" d="M387,1477.9c-1.3-2.1,0.9,3.1,12.3,11.7c7,5.3,12.3,11.3,48.3,11.3s48.2-6.8,55.6-13.7c-2.4-35.5-3.2-60-3.2-60
	l13.9,31.1c0,0,13.1-3.3,22.9-12.3c8.7-8,19.7-23.7,19.7-23.7s-33.6-66.3-45.9-73.7c-12.3-7.4-44.2-11.5-44.2-11.5
	s-1.7,10.9-24.6,12.3c-27.8,1.6-31.1-12.3-31.1-12.3s-33.6,2.5-43.4,12.3c-9.8,9.8-40.9,70.4-40.9,70.4s5.4,12.9,17.2,22.9
	c10.6,9,22.9,12.3,22.9,12.3l22.1-31.9C388.6,1423.1,385.1,1468.1,387,1477.9z"/>
</svg>
